<svg xmlns="http://www.w3.org/2000/svg" xmlns:xlink="http://www.w3.org/1999/xlink" width="586" height="162" viewBox="0 0 586 162">
  <defs>
    <clipPath id="clip-amipay_logo">
      <rect width="586" height="162"/>
    </clipPath>
  </defs>
  <g id="amipay_logo" clip-path="url(#clip-amipay_logo)">
    <g id="Group_19" data-name="Group 19" transform="translate(-84 -338)">
      <text id="ami" transform="translate(89 459)" fill="#fff" font-size="120" font-family="Montserrat-Light, Montserrat" font-weight="300"><tspan x="0" y="0">ami</tspan></text>
      <g id="surface1" transform="matrix(0.656, -0.755, 0.755, 0.656, 525.084, 428.62)">
        <path id="Path_1" data-name="Path 1" d="M71.71,0a26.934,26.934,0,0,0-6.366,1.1C58.126,3,16.611,14.49,16.611,14.49a1.968,1.968,0,0,0-.22.073c-6.577,2.479-10.72,4.811-13.245,8.2C.64,26.125.082,30.168.073,34.979v1.537C.045,36.808,0,37.1,0,37.393V87.444a13.221,13.221,0,0,0,13.171,13.171h72A13.221,13.221,0,0,0,98.344,87.444V37.027c0-7.463-6.677-13.683-14.049-13.683H14.049A13.05,13.05,0,0,0,7.1,25.32c1.7-2.095,4.912-4.071,10.757-6.293.064-.027.082-.045.147-.073.265-.073,41.534-11.479,48.514-13.317a24.056,24.056,0,0,1,5.268-.951,3.5,3.5,0,0,1,2.048.366c.275.2.5.594.732,1.536a19.257,19.257,0,0,1,.366,4.244v7.83h4.683v-7.83A22.619,22.619,0,0,0,79.1,5.49a7.179,7.179,0,0,0-2.488-4.171A7.809,7.809,0,0,0,71.71,0ZM14.049,28.027H84.295c4.565,0,9.366,4.537,9.366,9V87.444a8.471,8.471,0,0,1-8.488,8.488h-72a8.459,8.459,0,0,1-8.488-8.488V40.832l.073-3.878A10.627,10.627,0,0,1,7.244,31.32,8.864,8.864,0,0,1,14.049,28.027Zm66.734,28.1a5.854,5.854,0,1,0,5.854,5.855A5.848,5.848,0,0,0,80.783,56.125Z" transform="translate(0 0)" fill="#fff"/>
      </g>
      <text id="pay" transform="translate(323 454)" fill="#fff" font-size="115" font-family="Montserrat-Medium, Montserrat" font-weight="500"><tspan x="0" y="0">pay</tspan></text>
    </g>
  </g>
</svg>
